:SAMPLES-PER-SECOND 30
:FULLY-SPECIFIED
:DEGREES
555
root  -51.2694 33.6622 29.1716 -171.675 44.9035 -175.867
RightUpLeg  -31.3967 -25.2947 10.411
RightLeg  41.4686 -7.35629 -5.69272
RightFoot  -3.46276 0.00333683 0.714655
RightToes  -20.1241 -0.0821514 -0.177819
Spine  -0.0279964 -1.61419 0.11567
Spine1  -0.08254 -3.25578 0.796488
HEad  -60.9841 -11.3013 16.4854
LeftShoulder1  -1.94126e-019 -3.10601e-018 -2.51263e-017
LeftArm  -11.6236 14.437 -59.8475
LeftForeArm  24.7882 -35.0179 -6.37757
LeftHand  -0.422753 -0.0385603 9.11239
RightShoulder  -4.96962e-017 0 -2.36833e-017
RightArm  -38.3515 -24.2623 67.9977
RightForeArm  48.6914 18.6976 1.60967
RightHand  -0.364831 -1.58498 -10.9956
LeftUpLeg  -9.71497 14.1275 1.3958
LeftLeg  31.8139 17.6942 9.22562
LeftFoot  -11.9654 -0.456019 -4.18773
LeftToes  -19.8684 2.40056e-006 -7.68412e-008
556
root  -51.0732 33.2889 29.009 -170.15 45.5327 -174.45
RightUpLeg  -34.4093 -32.2287 17.3479
RightLeg  35.9416 -7.25014 -4.5692
RightFoot  -5.23876 0.0152745 0.928878
RightToes  -9.23616 -0.0299127 -0.0851659
Spine  0.384638 -1.89556 0.170783
Spine1  0.757706 -3.8458 0.922752
HEad  -68.874 -11.6004 16.8958
LeftShoulder1  -1.94126e-019 -3.10601e-018 -2.51263e-017
LeftArm  -8.88512 9.28393 -59.7547
LeftForeArm  25.2293 -35.9997 -6.61329
LeftHand  -0.426842 -0.287201 8.81867
RightShoulder  -4.96962e-017 0 -2.36833e-017
RightArm  -37.6541 -25.2294 65.5403
RightForeArm  47.0078 19.1441 1.76207
RightHand  -0.305905 -2.44583 -11.7619
LeftUpLeg  -12.1537 15.8078 2.51277
LeftLeg  36.9696 15.9886 10.2456
LeftFoot  -14.0494 -0.59435 -4.65903
LeftToes  -21.6737 2.40056e-006 -7.68412e-008
557
root  -50.8706 32.7422 28.8414 -169.086 46.3165 -173.515
RightUpLeg  -37.6708 -36.7676 23.2352
RightLeg  33.1021 -10.5929 -5.92739
RightFoot  -10.6284 0.170313 2.44284
RightToes  14.4155 0.0184259 0.139453
Spine  0.989667 -1.98838 0.0758702
Spine1  1.97514 -4.08061 0.750378
HEad  -77.672 -12.0289 18.0665
LeftShoulder1  -1.94126e-019 -3.10601e-018 -2.51263e-017
LeftArm  -6.4168 3.12672 -59.9158
LeftForeArm  24.6274 -34.9764 -6.36887
LeftHand  -0.465082 -0.540409 9.21386
RightShoulder  -4.96962e-017 0 -2.36833e-017
RightArm  -37.1598 -26.2825 63.5235
RightForeArm  46.122 19.2437 1.81834
RightHand  -0.328159 -2.32317 -12.156
LeftUpLeg  -14.7041 19.3116 3.47566
LeftLeg  42.6301 13.5286 10.7004
LeftFoot  -17.2062 -0.802638 -5.13998
LeftToes  -20.6238 2.40056e-006 -7.68412e-008
558
root  -50.7331 32.0562 28.6312 -168.307 47.8834 -173.52
RightUpLeg  -39.9788 -33.1722 22.5326
RightLeg  38.6616 -11.7097 -8.0968
RightFoot  -14.0148 0.378169 3.69914
RightToes  13.184 0.0182293 0.127407
Spine  1.35986 -1.90809 -0.289548
Spine1  2.71779 -3.98297 0.0572402
HEad  -85.6853 -12.1675 19.2105
LeftShoulder1  -1.94126e-019 -3.10601e-018 -2.51263e-017
LeftArm  -3.60788 -3.15935 -59.9768
LeftForeArm  24.4032 -32.0747 -5.63603
LeftHand  -0.46151 -0.568975 9.10239
RightShoulder  -4.96962e-017 0 -2.36833e-017
RightArm  -36.6747 -26.1271 62.0492
RightForeArm  46.2032 17.3404 1.46928
RightHand  -0.316031 -2.52068 -12.4764
LeftUpLeg  -17.3899 23.7019 3.33893
LeftLeg  48.0831 11.2672 10.824
LeftFoot  -20.1293 -0.988471 -5.40335
LeftToes  -21.2849 2.40056e-006 -7.68412e-008
559
root  -50.4643 31.4233 28.3162 -167.718 50.9675 -172.434
RightUpLeg  -42.1676 -30.2992 21.8039
RightLeg  46.3813 -10.7172 -9.76624
RightFoot  -15.4943 0.471977 4.09169
RightToes  14.9495 0.0180774 0.144677
Spine  1.90768 -1.68933 -0.38967
Spine1  3.81277 -3.61227 -0.177978
HEad  -89.4511 -12.0391 18.8139
LeftShoulder1  -1.94126e-019 -3.10601e-018 -2.51263e-017
LeftArm  -4.11326 -8.64771 -61.4565
LeftForeArm  27.1821 -26.4524 -4.1828
LeftHand  -0.474221 -0.978956 8.78135
RightShoulder  -4.96962e-017 0 -2.36833e-017
RightArm  -38.9229 -23.0574 60.4914
RightForeArm  52.0805 12.322 1.48638
RightHand  -0.335174 -2.58904 -13.5777
LeftUpLeg  -17.7422 27.8749 4.37878
LeftLeg  52.662 9.97638 11.2536
LeftFoot  -22.3352 -1.1718 -5.76897
LeftToes  -23.793 2.40056e-006 -7.68412e-008
560
root  -50.1031 30.9838 27.8679 -166.809 53.2663 -171.173
RightUpLeg  -42.7005 -31.7766 22.3763
RightLeg  49.2881 -7.7162 -7.84929
RightFoot  -18.0752 0.471738 3.56735
RightToes  14.897 0.0181549 0.144164
Spine  1.87243 -2.09291 -0.249906
Spine1  3.7511 -4.39602 -0.00569396
HEad  -87.9986 -11.7332 16.506
LeftShoulder1  -1.94126e-019 -3.10601e-018 -2.51263e-017
LeftArm  -9.14753 -11.4243 -64.2563
LeftForeArm  33.285 -19.609 -3.06589
LeftHand  -0.503463 -0.9309 9.38169
RightShoulder  -4.96962e-017 0 -2.36833e-017
RightArm  -45.475 -18.3154 58.9175
RightForeArm  64.6382 5.19353 0.860566
RightHand  -0.225852 -3.66445 -14.4758
LeftUpLeg  -17.0161 29.618 5.23952
LeftLeg  55.1329 10.0492 12.3415
LeftFoot  -23.8243 -1.41323 -6.5304
LeftToes  -26.1869 2.40056e-006 -7.68412e-008
561
root  -49.6925 30.8256 27.4404 -166.123 55.3774 -170.206
RightUpLeg  -42.0608 -33.3318 22.4402
RightLeg  50.3874 -5.32553 -5.67275
RightFoot  -19.4528 0.365618 2.71636
RightToes  14.2073 0.0181766 0.137416
Spine  1.55672 -2.36644 -0.242539
Spine1  3.11076 -4.91137 -0.0250253
HEad  -83.2584 -12.1787 14.3619
LeftShoulder1  -1.94126e-019 -3.10601e-018 -2.51263e-017
LeftArm  -16.4085 -12.6925 -67.8081
LeftForeArm  39.5874 -12.5527 -2.19299
LeftHand  -0.541199 0.00720812 11.745
RightShoulder  -4.96962e-017 0 -2.36833e-017
RightArm  -49.1367 -16.1592 58.8621
RightForeArm  71.8028 1.92446 0.276969
RightHand  0.0923049 -6.37377 -13.2206
LeftUpLeg  -15.5465 29.0876 5.52433
LeftLeg  55.8625 11.2517 14.0996
LeftFoot  -23.5431 -1.57376 -7.37988
LeftToes  -28.9179 2.40056e-006 -7.68412e-008
562
root  -49.2314 30.9261 27.0482 -164.259 58.6308 -168.03
RightUpLeg  -39.8272 -31.9811 21.9816
RightLeg  49.8402 -4.22917 -4.43715
RightFoot  -19.3415 0.265917 2.13443
RightToes  13.6261 0.0178575 0.13173
Spine  1.16398 -2.13226 -0.226239
Spine1  2.32655 -4.38082 -0.0621819
HEad  -77.2162 -12.1653 12.5361
LeftShoulder1  -1.94126e-019 -3.10601e-018 -2.51263e-017
LeftArm  -19.3078 -11.3546 -71.0302
LeftForeArm  38.3482 -10.7311 -1.88562
LeftHand  -0.445201 1.79139 14.2646
RightShoulder  -4.96962e-017 0 -2.36833e-017
RightArm  -51.442 -15.6665 60.8294
RightForeArm  74.5498 1.94249 0.274837
RightHand  0.20414 -7.54705 -12.2973
LeftUpLeg  -13.1126 28.883 5.74665
LeftLeg  54.6012 14.1039 16.6924
LeftFoot  -23.2275 -1.88213 -8.9777
LeftToes  -26.7756 2.40056e-006 -7.68412e-008
563
root  -48.799 31.2287 26.6258 -162.429 61.859 -166.243
RightUpLeg  -37.0652 -29.3122 20.8108
RightLeg  48.0051 -3.96548 -3.90495
RightFoot  -18.2313 0.207289 1.86317
RightToes  11.0464 0.0169113 0.106516
Spine  0.679875 -2.1746 -0.178446
Spine1  1.34546 -4.40249 0.0521649
HEad  -70.8763 -11.095 9.70281
LeftShoulder1  -1.94126e-019 -3.10601e-018 -2.51263e-017
LeftArm  -18.6036 -7.42032 -74.0105
LeftForeArm  31.196 -12.6219 -2.24596
LeftHand  -0.307691 2.92048 14.1474
RightShoulder  -4.96962e-017 0 -2.36833e-017
RightArm  -47.9806 -15.9967 63.6754
RightForeArm  71.7215 4.46803 0.720411
RightHand  -0.0495205 -5.0653 -11.4999
LeftUpLeg  -10.5838 28.0493 4.83729
LeftLeg  52.0832 18.0357 19.2169
LeftFoot  -21.2074 -1.93304 -10.137
LeftToes  -25.9603 2.40056e-006 -7.68412e-008
564
root  -48.34 31.6943 26.1752 -160.402 63.2916 -164.417
RightUpLeg  -34.1753 -28.501 20.1635
RightLeg  44.7459 -3.52215 -3.09692
RightFoot  -16.6475 0.132901 1.47522
RightToes  8.43852 0.0150535 0.0811001
Spine  0.0823622 -2.67 0.100676
Spine1  0.138272 -5.36022 0.665082
HEad  -64.3755 -10.1737 6.11014
LeftShoulder1  -1.94126e-019 -3.10601e-018 -2.51263e-017
LeftArm  -16.5426 -2.33056 -77.3966
LeftForeArm  27.3862 -15.6861 -2.82365
LeftHand  -0.320044 2.14328 11.2576
RightShoulder  -4.96962e-017 0 -2.36833e-017
RightArm  -40.0872 -18.1329 66.5257
RightForeArm  63.6122 9.14032 1.4836
RightHand  -0.348527 -1.10373 -9.36524
LeftUpLeg  -8.87037 25.2162 3.89366
LeftLeg  50.1099 22.2767 21.7176
LeftFoot  -17.2926 -1.5611 -10.0779
LeftToes  -27.0636 2.40056e-006 -7.68412e-008
565
root  -47.8888 32.2237 25.7379 -158.557 63.6954 -163.054
RightUpLeg  -31.4096 -29.2237 19.8587
RightLeg  40.536 -2.47909 -1.88179
RightFoot  -14.7012 0.047327 0.925409
RightToes  5.24623 0.0107655 0.0501675
Spine  -0.508509 -3.21803 0.333563
Spine1  -1.05613 -6.43524 1.22261
HEad  -58.3226 -9.6857 2.76593
LeftShoulder1  -1.94126e-019 -3.10601e-018 -2.51263e-017
LeftArm  -11.8671 2.8286 -80.6254
LeftForeArm  29.6019 -19.8882 -3.57928
LeftHand  -0.353755 0.000243935 7.68148
RightShoulder  -4.96962e-017 0 -2.36833e-017
RightArm  -31.9645 -22.1404 69.6164
RightForeArm  53.3381 15.5896 1.12866
RightHand  -0.420031 1.93741 -6.83054
LeftUpLeg  -8.04555 22.6936 3.28237
LeftLeg  48.9183 25.5789 23.5178
LeftFoot  -11.9703 -0.855984 -7.98922
LeftToes  -31.3382 2.40056e-006 -7.68412e-008
566
root  -47.4142 32.7405 25.3466 -156.873 64.1684 -161.964
RightUpLeg  -28.4787 -29.6658 19.4634
RightLeg  35.8765 -1.39251 -0.893829
RightFoot  -12.5491 -0.00331331 0.521493
RightToes  1.45804 0.00345227 0.0138406
Spine  -1.06023 -3.57817 0.421501
Spine1  -2.1729 -7.1313 1.55796
HEad  -53.2968 -9.48391 0.0517085
LeftShoulder1  -1.94126e-019 -3.10601e-018 -2.51263e-017
LeftArm  -3.38158 7.38484 -82.9212
LeftForeArm  35.2422 -24.2106 -4.08058
LeftHand  -0.345832 -3.0168 5.01139
RightShoulder  -4.96962e-017 0 -2.36833e-017
RightArm  -31.7708 -25.6145 72.8089
RightForeArm  51.3742 20.0848 1.75183
RightHand  -0.413231 2.64268 -6.18277
LeftUpLeg  -7.23138 23.483 3.71235
LeftLeg  47.0561 26.1996 22.6356
LeftFoot  -6.1089 -0.221582 -3.98908
LeftToes  -39.5583 2.40056e-006 -7.68412e-008
